<svg xmlns="http://www.w3.org/2000/svg" xmlns:xlink="http://www.w3.org/1999/xlink" fill="none" version="1.1" width="100" height="100" viewBox="0 0 100 100"><g><g></g><g><path d="M4.6261399999999995,81.99955625C3.305082,81.99955625,2.346943,80.74145625,2.6980898,79.46785625L19.566,18.29138625C20.287,15.67620525,23.347,14.52206525,25.6155,16.00962825L47.8104,30.56365625C49.1404,31.43575625,50.8606,31.43715625,52.192,30.56705625L74.481,16.00164425C76.7516,14.51787825,79.8092,15.67628425,80.5267,18.29205625L97.3064,79.47045625C97.6555,80.74345625,96.6976,81.99955625,95.3776,81.99955625L73.9544,81.99955625C77.8543,77.48405625000001,80.0001,71.71665625,80.0001,65.75015625L80.0001,65.05385625C80.0001,59.21775625,77.8771,53.58085625,74.0273,49.19455625L71.2779,35.39425625C71.1164,34.58345625,70.4047,33.99955625,69.5779,33.99955625C69.2028,33.99955625,68.8379,34.12115625,68.5378,34.34615625L58.1719,42.120656249999996C57.4337,42.67425625,56.4789,42.85065625,55.5916,42.59705625C51.937,41.55295625,48.0631,41.55295625,44.4085,42.59705625C43.5212,42.85065625,42.5664,42.67425625,41.8282,42.120656249999996L31.4577,34.34275625C31.1607,34.11995625,30.7993,33.99955625,30.428,33.99955625C29.6005,33.99955625,28.8908,34.58995625,28.7403,35.40355625L26.0729,49.82405625C22.181,53.78165625,20.0001,59.11005625,20.0001,64.66065625L20.0001,65.97975625000001C20.0001,71.80015625,22.0822,77.42865625,25.87,81.84785625L26.0001,81.99955625L4.6261399999999995,81.99955625Z" fill-rule="evenodd" fill="#29E154" fill-opacity="1"/></g><g><path d="M39,70L45,70L45,56L39.909091,56L39,70ZM61,70L55,70L55,56L60.090900000000005,56L61,70Z" fill="#000000" fill-opacity="1"/></g></g></svg>